<svg width="105" height="117" viewBox="0 0 105 117" fill="none" xmlns="http://www.w3.org/2000/svg">
<path d="M23.4043 84.4374C23.9245 84.6447 24.8646 85.0769 26.2247 85.7339C27.6021 86.3834 28.3515 86.7539 28.473 86.8453L27.7991 88.536C27.4721 88.42 26.7601 88.2438 25.6629 88.0074C24.5782 87.776 23.9418 87.6802 23.7536 87.7201L20.5841 95.6716C20.6784 95.8671 21.1357 96.2503 21.9559 96.8213C22.7885 97.3972 23.4699 97.8482 24.0002 98.1744L23.3115 99.9022C23.039 99.7936 22.7937 99.6887 22.5757 99.5874C20.3487 98.6567 18.8698 98.0097 18.139 97.6466L18.6648 96.3276C18.1092 95.4889 17.0891 94.501 15.6047 93.3638C14.1202 92.2267 12.0713 91.1373 9.45795 90.0955L8.73339 89.8067L7.69571 91.6538L6.39522 91.1354L11.0311 79.5053L12.3316 80.0237L11.8807 81.9109L22.6934 86.2209L23.4043 84.4374ZM10.1619 88.6537C12.5696 89.5991 14.5528 90.5834 16.1114 91.6065C17.67 92.6297 18.7926 93.5222 19.4794 94.2839L21.4344 89.3792L10.436 84.9952L9.14004 88.2464L10.1619 88.6537Z" fill="#8E4C2E"/>
<path d="M15.3665 75.0813L14.3024 76.2559L13.1151 75.514L18.9123 66.2363L22.0522 67.8917L21.2149 69.2316L19.1309 68.7548L16.8735 71.9902L21.2834 74.7457L22.5254 72.6447L21.3254 71.4703L22.0567 70.3L26.3139 72.9601L25.5826 74.1305L23.9269 73.4968L22.5724 75.5512L27.1858 78.4339L29.2694 74.571L27.7279 72.1692L29.0358 70.9819L31.9701 73.3814L25.7278 83.3715L24.6084 82.672L25.2548 81.26L15.3665 75.0813Z" fill="#8E4C2E"/>
<path d="M37.2801 67.5277C35.7629 69.2652 34.1075 70.1473 32.3138 70.1741C30.5102 70.1922 28.7296 69.4338 26.9721 67.899C25.787 66.8641 24.9681 65.7242 24.5154 64.4791C24.0525 63.2252 23.9585 61.9748 24.2332 60.7278C24.4979 59.4719 25.0951 58.3118 26.0247 57.2472C26.3931 56.8254 26.7734 56.4406 27.1657 56.0928C27.5479 55.7362 28.0203 55.3168 28.583 54.8346C29.0305 54.4641 29.3294 54.203 29.4797 54.051L32.6812 57.1655L31.2736 58.7774L28.5214 57.2768C28.0875 57.2872 27.5635 57.644 26.9496 58.347C26.2743 59.1203 26.126 60.0705 26.5046 61.1978C26.882 62.3062 27.8138 63.5094 29.3002 64.8074C30.7464 66.0703 32.0949 66.8674 33.3457 67.1986C34.6054 67.5197 35.5991 67.2635 36.3271 66.4299C36.6866 66.0181 36.9184 65.6717 37.0222 65.3907C37.1348 65.0996 37.1815 64.8129 37.1625 64.5307L36.1426 62.4452L37.5674 61.0873L39.7861 63.5028C39.5518 63.8116 39.3158 64.2339 39.078 64.7697C38.8377 65.2679 38.5898 65.724 38.3343 66.1382C38.0876 66.5423 37.7362 67.0055 37.2801 67.5277Z" fill="#8E4C2E"/>
<path d="M33.9834 51.7296L32.6052 52.5124L31.7096 51.4363L40.1182 44.4378L42.5827 46.9924L41.3683 48.0031L39.538 46.8984L36.3817 49.2651L39.7083 53.2619L41.5453 51.6549L40.7729 50.164L41.8335 49.2812L45.0449 53.1397L43.9842 54.0225L42.6098 52.9026L40.6806 54.4302L44.1607 58.6114L47.3481 55.5943L46.6353 52.8308L48.249 52.1122L50.2854 55.3092L41.2312 62.8451L40.3868 61.8305L41.4425 60.6916L33.9834 51.7296Z" fill="#8E4C2E"/>
<path d="M45.7556 42.5713L44.3418 43.091L43.6229 41.8896L46.4204 40.2157C46.6034 40.1061 46.9512 39.8825 47.4639 39.5447C48.1001 39.1018 48.6871 38.7195 49.2248 38.3977C50.4605 37.6583 51.522 37.2251 52.4094 37.0981C53.2967 36.9711 54.0569 37.0989 54.6898 37.4815C55.3159 37.8527 55.8823 38.4616 56.3889 39.3083C57.2653 40.7728 57.5003 42.1782 57.0939 43.5246C56.6876 44.8709 55.6607 46.037 54.0131 47.0229C53.4982 47.331 53.0932 47.55 52.7981 47.68L54.6672 50.8035L57.0455 49.6367L57.7233 50.7694L51.2017 54.6718L50.5239 53.5391L51.7427 52.5768L45.7556 42.5713ZM52.0723 46.5061C52.3354 46.4264 52.7301 46.2291 53.2564 45.9141C54.7438 45.0241 54.8062 43.4407 53.4438 41.1638C52.8756 40.2142 52.2726 39.635 51.6348 39.4261C51.0017 39.199 50.3133 39.3079 49.5696 39.7529C49.2493 39.9446 49.0078 40.1124 48.8453 40.2563C48.6759 40.3887 48.5603 40.4812 48.4985 40.5337L52.0723 46.5061Z" fill="#8E4C2E"/>
<path d="M62.6714 33.5078L60.3866 34.5273L61.2596 38.981L59.5135 39.6778L57.5719 33.9495L69.813 29.064L72.2933 34.5774L70.6401 35.2372L68.1696 31.4211L65.885 32.2252L70.2737 43.2218L72.9372 42.3957L73.4265 43.6217L65.2719 46.8761L64.7826 45.6502L67.0602 44.5043L62.6714 33.5078Z" fill="#8E4C2E"/>
<path d="M78.9071 32.8224C79.2202 32.7549 79.6318 32.6703 80.142 32.5688C80.6522 32.4673 81.0912 32.3848 81.4591 32.3214C83.1147 32.0358 84.4275 32.195 85.3976 32.7989C86.3677 33.4028 86.9683 34.3749 87.1994 35.7151C87.3671 36.6874 87.2757 37.5691 86.925 38.3602C86.5875 39.1491 86.0509 39.8031 85.3151 40.3224C84.5793 40.8417 83.7121 41.1874 82.7135 41.3597C82.3588 41.4208 81.7433 41.4999 80.867 41.5969C79.8856 41.7121 79.0927 41.8218 78.4883 41.926L75.5517 42.4325L75.3273 41.1317L76.8109 40.6729L74.8224 29.1431L73.2932 29.1024L73.0655 27.7819L79.9636 26.5922L80.1914 27.9127L78.1763 28.5849L78.9071 32.8224ZM93.1489 24.3181L93.3869 25.6977L91.7789 26.2592L93.7607 37.7495L95.4536 37.6808L95.6746 38.9619L89.0524 40.104L88.828 38.8032L90.387 38.3111L88.4087 26.8404L86.7449 26.8433L86.507 25.4636L93.1489 24.3181ZM80.1819 40.2133C80.649 40.2545 81.1191 40.2343 81.5921 40.1527C82.5381 39.9895 83.1704 39.5761 83.4889 38.9123C83.8205 38.2462 83.9047 37.4402 83.7415 36.4941C83.5648 35.4693 83.2242 34.75 82.7199 34.3364C82.2265 33.9073 81.5528 33.7665 80.6987 33.9138C80.0023 34.0339 79.4856 34.1365 79.1485 34.2217L80.1819 40.2133Z" fill="#8E4C2E"/>
</svg>
