<svg width="210" height="183" viewBox="0 0 210 183" fill="none" xmlns="http://www.w3.org/2000/svg">
<g filter="url(#filter0_i_185_686)">
<path d="M51.9324 166.517L57.2205 163.978L57.9894 165.781L54.403 168.078L55.4713 171.144L66.4146 166.521L65.3777 163.528L66.5936 163.014L70.0221 171.054L68.8062 171.568L67.7562 169.666L57.034 174.197L57.5971 176.282L56.3259 176.819L51.9324 166.517Z" fill="#8E4C2E"/>
</g>
<g filter="url(#filter1_i_185_686)">
<path d="M63.3386 151.674C63.8689 153.851 63.6059 155.616 62.5499 156.97C61.4808 158.327 59.7904 159.274 57.4786 159.811C55.985 160.158 54.6135 160.189 53.364 159.904C52.0984 159.61 51.0388 159.035 50.1854 158.179C49.332 157.323 48.7427 156.228 48.4176 154.894C47.8748 152.666 48.0989 150.882 49.09 149.543C50.0651 148.195 51.7019 147.253 54.0007 146.719C55.5203 146.366 56.9323 146.332 58.2369 146.618C59.5285 146.906 60.6237 147.487 61.5224 148.359C62.405 149.222 63.0104 150.327 63.3386 151.674ZM49.7176 154.654C49.9448 155.586 50.6346 156.193 51.7868 156.472C52.9359 156.739 54.53 156.636 56.5691 156.162C58.6471 155.68 60.131 155.068 61.021 154.327C61.8979 153.59 62.2227 152.755 61.9955 151.822C61.7714 150.902 61.0523 150.316 59.8383 150.065C58.6081 149.803 56.967 149.91 54.915 150.387C52.837 150.87 51.3969 151.464 50.5947 152.171C49.7796 152.88 49.4872 153.708 49.7176 154.654Z" fill="#8E4C2E"/>
</g>
<g filter="url(#filter2_i_185_686)">
<path d="M48.0058 142.327L47.8301 143.818L46.4321 143.893L46.2032 140.641C46.1882 140.428 46.1458 140.016 46.0761 139.406C45.9686 138.637 45.8928 137.94 45.8488 137.315C45.7477 135.879 45.8412 134.739 46.1293 133.896C46.4174 133.053 46.8755 132.441 47.5036 132.061C48.1183 131.681 48.9183 131.464 49.9036 131.412C51.6078 131.321 52.9691 131.769 53.9875 132.756C55.0058 133.743 55.5824 135.194 55.7173 137.11C55.7594 137.708 55.7717 138.168 55.7543 138.489L59.3891 138.296L59.4234 135.65L60.7415 135.58L61.2752 143.161L59.9571 143.232L59.6493 141.706L48.0058 142.327ZM54.3776 138.583C54.4255 138.313 54.4279 137.873 54.3848 137.261C54.2631 135.532 52.8774 134.738 50.2279 134.879C49.1228 134.938 48.3327 135.2 47.8576 135.666C47.3683 136.12 47.1541 136.778 47.215 137.643C47.2412 138.015 47.2818 138.307 47.3367 138.518C47.3783 138.729 47.4086 138.874 47.4275 138.953L54.3776 138.583Z" fill="#8E4C2E"/>
</g>
<g filter="url(#filter3_i_185_686)">
<path d="M54.8896 120.002L54.754 121.174C54.9199 121.529 55.3002 121.884 55.8949 122.237C56.491 122.577 57.3082 122.984 58.3465 123.458C59.1914 123.855 59.804 124.163 60.1841 124.384C60.5656 124.591 60.7478 124.78 60.7308 124.953L60.3562 128.754L59.0456 128.597L58.8958 127.874C58.8612 127.682 58.7061 127.489 58.4305 127.295C58.1563 127.087 57.7523 126.837 57.2185 126.545C56.3191 126.021 55.5905 125.53 55.0327 125.074C54.4749 124.618 54.1123 124.084 53.9448 123.473C53.6269 124.388 53.0718 125.06 52.2794 125.488C51.4884 125.904 50.6296 126.056 49.7029 125.944C48.2599 125.771 47.2652 125.195 46.7187 124.216C46.1589 123.236 45.9764 121.757 46.1712 119.78C46.2248 119.236 46.3134 118.609 46.437 117.899C46.4527 117.74 46.4888 117.509 46.5453 117.207C46.5886 116.904 46.624 116.612 46.6515 116.334L46.9692 113.109L48.3592 113.276L48.4862 114.842L60.063 116.233L60.4224 114.625L61.733 114.782L61.0642 121.569L59.7536 121.412L59.7276 119.636L54.9619 119.064L54.8896 120.002ZM47.7735 118.201C47.7657 118.28 47.7368 118.438 47.6868 118.673C47.6248 118.894 47.5749 119.197 47.537 119.582C47.4585 120.378 47.6036 121.013 47.9721 121.487C48.342 121.948 49.03 122.238 50.0361 122.359C52.2071 122.62 53.3744 121.921 53.5378 120.262C53.611 119.519 53.629 119.065 53.5917 118.899L47.7735 118.201Z" fill="#8E4C2E"/>
</g>
<g filter="url(#filter4_i_185_686)">
<path d="M58.6474 102.089C58.7959 102.595 58.8518 103.184 58.8151 103.856C58.7656 104.524 58.6578 105.153 58.4916 105.743C58.2208 106.706 57.873 107.45 57.4483 107.975C57.0236 108.5 56.4556 108.821 55.7443 108.937C55.0202 109.05 54.11 108.938 53.0137 108.602L49.8395 107.629L49.2684 108.625L47.9299 108.215L49.5334 102.516L50.872 102.926L50.7467 104.331L53.2517 105.099C54.2205 105.396 54.9506 105.557 55.4421 105.582C55.9244 105.59 56.2817 105.477 56.5142 105.241C56.7338 105.002 56.9267 104.587 57.0929 103.997C57.2121 103.573 57.2784 103.14 57.292 102.698C57.2929 102.253 57.2411 101.895 57.1368 101.626L51.9548 100.038L51.2783 101.482L49.9398 101.072L51.7112 94.7765L53.0498 95.1868L52.8949 96.7706L64.0237 100.182L64.6812 98.7316L65.9241 99.1126L63.9955 105.966L62.7334 105.58L63.1028 103.455L58.6474 102.089Z" fill="#8E4C2E"/>
</g>
<g filter="url(#filter5_i_185_686)">
<path d="M56.2735 84.3941L57.4989 85.0287L56.9906 86.747L64.8404 90.8124L63.504 88.8143L59.9342 81.6963L59.5612 81.5032L58.5907 82.847L57.3475 82.2032L60.2262 76.3308L61.4694 76.9746L61.049 78.4682L71.385 83.8213L72.2671 82.5217L73.4392 83.1288L70.5517 89.0191L69.3796 88.4121L69.8973 86.8563L61.9232 82.7265L63.2947 84.6077L66.8294 91.8426L67.3267 92.1001L68.2879 90.6389L69.4601 91.246L66.5374 97.2081L65.3652 96.6011L65.8567 95.1443L55.4851 89.7728L54.594 91.0001L53.3508 90.3562L56.2735 84.3941Z" fill="#8E4C2E"/>
</g>
<g filter="url(#filter6_i_185_686)">
<path d="M65.1503 71.9805L64.0115 73.0755L62.8931 72.2334L69.3104 63.3733L72.291 65.2919L71.3642 66.5715L69.3398 65.9235L66.8688 68.9941L71.0232 72.1217L72.4065 70.1095L71.3075 68.8316L72.117 67.7139L76.1275 70.7332L75.318 71.8509L73.7285 71.0797L72.2375 73.0359L76.5836 76.3078L78.9291 72.5921L77.5836 70.0523L78.9643 68.9642L81.6866 71.6144L74.7765 81.1548L73.722 80.3609L74.4656 78.9934L65.1503 71.9805Z" fill="#8E4C2E"/>
</g>
<g filter="url(#filter7_i_185_686)">
<path d="M84.9513 55.8469C85.0223 55.766 85.2734 55.5163 85.7046 55.0978C86.127 54.6693 86.4779 54.331 86.757 54.0832C88.0831 52.9058 89.2975 52.2911 90.4002 52.2392C91.5029 52.1873 92.5219 52.6999 93.4574 53.7771C94.4278 54.8945 94.8201 56.0884 94.6343 57.3588C94.4585 58.6204 93.7823 59.7735 92.6058 60.8181C92.3665 61.0305 91.9645 61.3607 91.3999 61.8085C90.1597 62.8205 89.5047 63.3574 89.4349 63.4194L86.7878 65.7697L85.9223 64.7731L87.0773 63.4801L79.432 54.6764L77.9622 55.607L77.0442 54.55L85.5989 46.9545L88.4518 49.9041L87.001 51.1921L84.9113 49.7313L81.8171 52.2378L84.9513 55.8469ZM89.6854 61.2982C90.0731 61.1144 90.4564 60.8543 90.8353 60.5179C91.6031 59.8363 91.9728 59.1335 91.9446 58.4097C91.9164 57.6859 91.5876 56.9616 90.9582 56.2368C90.2762 55.4515 89.6128 55.0332 88.9678 54.9819C88.3241 54.9116 87.6532 55.1863 86.9553 55.806C86.7658 55.9742 86.5608 56.1651 86.3402 56.3788C86.1296 56.5836 85.9639 56.7486 85.843 56.8737L89.6854 61.2982Z" fill="#8E4C2E"/>
</g>
<g filter="url(#filter8_i_185_686)">
<path d="M96.8214 42.7071C98.0195 44.6155 99.0134 46.4244 99.8031 48.1338C100.597 49.8248 101.039 51.194 101.13 52.2413C101.218 53.385 100.823 54.2351 99.9446 54.7916C99.3701 55.1555 98.8983 55.407 98.5292 55.5462L97.3331 54.0547C97.7599 53.8317 98.2041 53.574 98.666 53.2814C98.9025 53.1316 99.0712 52.9615 99.1722 52.7713C99.2774 52.5626 99.3033 52.2779 99.25 51.9171C99.1796 51.0778 98.834 49.963 98.2132 48.5728C97.6036 47.1754 96.6041 45.3701 95.2146 43.1567L94.7148 42.3606L92.4709 43.4506L91.7266 42.2649L102.624 35.3616L103.368 36.5473L101.963 37.7691L108.162 47.6445L109.891 46.7864L110.592 47.9044L104.358 51.8537L103.656 50.7358L105.296 49.4363L99.1139 39.5502L96.0558 41.4874L96.8214 42.7071Z" fill="#8E4C2E"/>
</g>
<g filter="url(#filter9_i_185_686)">
<path d="M116.642 36.119C116.276 34.7894 116.19 33.5604 116.386 32.432C116.59 31.2864 117.048 30.3015 117.76 29.4771C118.468 28.6403 119.396 28.0054 120.543 27.5726C122.639 26.7821 124.413 26.7901 125.864 27.5966C127.315 28.4031 128.458 29.8959 129.292 32.0749C129.864 33.569 130.103 34.9753 130.008 36.2935C129.921 37.5946 129.52 38.729 128.806 39.6967C128.104 40.6597 127.123 41.3788 125.863 41.854C123.842 42.6162 122.103 42.6237 120.646 41.8764C119.197 41.112 118.05 39.7205 117.205 37.702L114.679 38.6547L116.539 43.5108L118.152 43.1376L118.624 44.3702L112.467 46.6922L111.995 45.4595L113.339 44.7177L109.176 33.8475L107.672 34.1154L107.172 32.808L113.253 30.5143L113.754 31.8217L112.376 32.6407L114.078 37.0859L116.642 36.119ZM120.966 28.8451C120.081 29.1792 119.587 29.9212 119.485 31.0712C119.383 32.2212 119.711 33.7861 120.469 35.7659C121.957 39.6507 123.624 41.245 125.47 40.5486C126.343 40.2193 126.809 39.4594 126.867 38.269C126.92 37.0662 126.566 35.4686 125.803 33.4764C125.054 31.5215 124.277 30.1829 123.472 29.4604C122.675 28.7209 121.84 28.5158 120.966 28.8451Z" fill="#8E4C2E"/>
</g>
<g filter="url(#filter10_i_185_686)">
<path d="M147.715 35.6052C147.805 36.1579 147.919 37.1857 148.055 38.6885C148.207 40.2024 148.275 41.0347 148.259 41.1854L146.459 41.4529C146.39 41.1127 146.174 40.4102 145.812 39.3453C145.452 38.2936 145.206 37.6967 145.075 37.5544L136.608 38.8127C136.488 38.9922 136.395 39.5789 136.327 40.5729C136.261 41.5801 136.225 42.3942 136.218 43.0152L134.378 43.2886C134.331 42.9991 134.295 42.7349 134.269 42.4961C133.921 40.1082 133.715 38.508 133.65 37.6954L135.054 37.4867C135.489 36.5865 135.812 35.2109 136.024 33.3598C136.236 31.5087 136.116 29.1947 135.664 26.4179L135.539 25.6481L133.416 25.6804L133.191 24.2986L145.575 22.4582L145.8 23.8401L143.946 24.3986L145.816 35.8874L147.715 35.6052ZM137.266 26.3012C137.695 28.8523 137.871 31.0568 137.795 32.9146C137.719 34.7724 137.531 36.1886 137.231 37.1633L142.453 36.3872L140.551 24.701L137.089 25.2155L137.266 26.3012Z" fill="#8E4C2E"/>
</g>
<g filter="url(#filter11_i_185_686)">
<path d="M155.754 22.1868L159.353 22.2646L163.8 35.7612L164.899 35.985L164.896 37.305L158.597 37.169L158.601 35.849L160.021 35.6796L159.347 33.265L154.568 33.1618L153.882 35.5671L155.441 35.7807L155.438 37.1007L150.119 36.9859L150.103 35.6655L151.263 35.4705L155.754 22.1868ZM157.226 25.6988L156.929 24.2923L156.606 25.7054L154.971 31.6304L158.931 31.7159L157.226 25.6988Z" fill="#8E4C2E"/>
</g>
<defs>
<filter id="filter0_i_185_686" x="51.8228" y="160.476" width="18.1992" height="20.3616" filterUnits="userSpaceOnUse" color-interpolation-filters="sRGB">
<feFlood flood-opacity="0" result="BackgroundImageFix"/>
<feBlend mode="normal" in="SourceGraphic" in2="BackgroundImageFix" result="shape"/>
<feColorMatrix in="SourceAlpha" type="matrix" values="0 0 0 0 0 0 0 0 0 0 0 0 0 0 0 0 0 0 127 0" result="hardAlpha"/>
<feOffset dy="4"/>
<feGaussianBlur stdDeviation="2"/>
<feComposite in2="hardAlpha" operator="arithmetic" k2="-1" k3="1"/>
<feColorMatrix type="matrix" values="0 0 0 0 0 0 0 0 0 0 0 0 0 0 0 0 0 0 0.25 0"/>
<feBlend mode="normal" in2="shape" result="effect1_innerShadow_185_686"/>
</filter>
<filter id="filter1_i_185_686" x="46.8315" y="144.931" width="18.0693" height="20.6083" filterUnits="userSpaceOnUse" color-interpolation-filters="sRGB">
<feFlood flood-opacity="0" result="BackgroundImageFix"/>
<feBlend mode="normal" in="SourceGraphic" in2="BackgroundImageFix" result="shape"/>
<feColorMatrix in="SourceAlpha" type="matrix" values="0 0 0 0 0 0 0 0 0 0 0 0 0 0 0 0 0 0 127 0" result="hardAlpha"/>
<feOffset dy="4"/>
<feGaussianBlur stdDeviation="2"/>
<feComposite in2="hardAlpha" operator="arithmetic" k2="-1" k3="1"/>
<feColorMatrix type="matrix" values="0 0 0 0 0 0 0 0 0 0 0 0 0 0 0 0 0 0 0.25 0"/>
<feBlend mode="normal" in2="shape" result="effect1_innerShadow_185_686"/>
</filter>
<filter id="filter2_i_185_686" x="45.4497" y="130.852" width="15.8257" height="17.1069" filterUnits="userSpaceOnUse" color-interpolation-filters="sRGB">
<feFlood flood-opacity="0" result="BackgroundImageFix"/>
<feBlend mode="normal" in="SourceGraphic" in2="BackgroundImageFix" result="shape"/>
<feColorMatrix in="SourceAlpha" type="matrix" values="0 0 0 0 0 0 0 0 0 0 0 0 0 0 0 0 0 0 127 0" result="hardAlpha"/>
<feOffset dy="4"/>
<feGaussianBlur stdDeviation="2"/>
<feComposite in2="hardAlpha" operator="arithmetic" k2="-1" k3="1"/>
<feColorMatrix type="matrix" values="0 0 0 0 0 0 0 0 0 0 0 0 0 0 0 0 0 0 0.25 0"/>
<feBlend mode="normal" in2="shape" result="effect1_innerShadow_185_686"/>
</filter>
<filter id="filter3_i_185_686" x="45.4634" y="112.993" width="16.2695" height="19.761" filterUnits="userSpaceOnUse" color-interpolation-filters="sRGB">
<feFlood flood-opacity="0" result="BackgroundImageFix"/>
<feBlend mode="normal" in="SourceGraphic" in2="BackgroundImageFix" result="shape"/>
<feColorMatrix in="SourceAlpha" type="matrix" values="0 0 0 0 0 0 0 0 0 0 0 0 0 0 0 0 0 0 127 0" result="hardAlpha"/>
<feOffset dy="4"/>
<feGaussianBlur stdDeviation="2"/>
<feComposite in2="hardAlpha" operator="arithmetic" k2="-1" k3="1"/>
<feColorMatrix type="matrix" values="0 0 0 0 0 0 0 0 0 0 0 0 0 0 0 0 0 0 0.25 0"/>
<feBlend mode="normal" in2="shape" result="effect1_innerShadow_185_686"/>
</filter>
<filter id="filter4_i_185_686" x="47.9297" y="94.7572" width="17.9941" height="21.8127" filterUnits="userSpaceOnUse" color-interpolation-filters="sRGB">
<feFlood flood-opacity="0" result="BackgroundImageFix"/>
<feBlend mode="normal" in="SourceGraphic" in2="BackgroundImageFix" result="shape"/>
<feColorMatrix in="SourceAlpha" type="matrix" values="0 0 0 0 0 0 0 0 0 0 0 0 0 0 0 0 0 0 127 0" result="hardAlpha"/>
<feOffset dy="4"/>
<feGaussianBlur stdDeviation="2"/>
<feComposite in2="hardAlpha" operator="arithmetic" k2="-1" k3="1"/>
<feColorMatrix type="matrix" values="0 0 0 0 0 0 0 0 0 0 0 0 0 0 0 0 0 0 0.25 0"/>
<feBlend mode="normal" in2="shape" result="effect1_innerShadow_185_686"/>
</filter>
<filter id="filter5_i_185_686" x="53.3418" y="76.2949" width="20.0972" height="24.9132" filterUnits="userSpaceOnUse" color-interpolation-filters="sRGB">
<feFlood flood-opacity="0" result="BackgroundImageFix"/>
<feBlend mode="normal" in="SourceGraphic" in2="BackgroundImageFix" result="shape"/>
<feColorMatrix in="SourceAlpha" type="matrix" values="0 0 0 0 0 0 0 0 0 0 0 0 0 0 0 0 0 0 127 0" result="hardAlpha"/>
<feOffset dy="4"/>
<feGaussianBlur stdDeviation="2"/>
<feComposite in2="hardAlpha" operator="arithmetic" k2="-1" k3="1"/>
<feColorMatrix type="matrix" values="0 0 0 0 0 0 0 0 0 0 0 0 0 0 0 0 0 0 0.25 0"/>
<feBlend mode="normal" in2="shape" result="effect1_innerShadow_185_686"/>
</filter>
<filter id="filter6_i_185_686" x="62.8931" y="62.2881" width="19.0752" height="22.8829" filterUnits="userSpaceOnUse" color-interpolation-filters="sRGB">
<feFlood flood-opacity="0" result="BackgroundImageFix"/>
<feBlend mode="normal" in="SourceGraphic" in2="BackgroundImageFix" result="shape"/>
<feColorMatrix in="SourceAlpha" type="matrix" values="0 0 0 0 0 0 0 0 0 0 0 0 0 0 0 0 0 0 127 0" result="hardAlpha"/>
<feOffset dy="4"/>
<feGaussianBlur stdDeviation="2"/>
<feComposite in2="hardAlpha" operator="arithmetic" k2="-1" k3="1"/>
<feColorMatrix type="matrix" values="0 0 0 0 0 0 0 0 0 0 0 0 0 0 0 0 0 0 0.25 0"/>
<feBlend mode="normal" in2="shape" result="effect1_innerShadow_185_686"/>
</filter>
<filter id="filter7_i_185_686" x="77.0444" y="45.9851" width="19.4946" height="23.9054" filterUnits="userSpaceOnUse" color-interpolation-filters="sRGB">
<feFlood flood-opacity="0" result="BackgroundImageFix"/>
<feBlend mode="normal" in="SourceGraphic" in2="BackgroundImageFix" result="shape"/>
<feColorMatrix in="SourceAlpha" type="matrix" values="0 0 0 0 0 0 0 0 0 0 0 0 0 0 0 0 0 0 127 0" result="hardAlpha"/>
<feOffset dy="4"/>
<feGaussianBlur stdDeviation="2"/>
<feComposite in2="hardAlpha" operator="arithmetic" k2="-1" k3="1"/>
<feColorMatrix type="matrix" values="0 0 0 0 0 0 0 0 0 0 0 0 0 0 0 0 0 0 0.25 0"/>
<feBlend mode="normal" in2="shape" result="effect1_innerShadow_185_686"/>
</filter>
<filter id="filter8_i_185_686" x="90.4424" y="35.3187" width="20.2139" height="24.4468" filterUnits="userSpaceOnUse" color-interpolation-filters="sRGB">
<feFlood flood-opacity="0" result="BackgroundImageFix"/>
<feBlend mode="normal" in="SourceGraphic" in2="BackgroundImageFix" result="shape"/>
<feColorMatrix in="SourceAlpha" type="matrix" values="0 0 0 0 0 0 0 0 0 0 0 0 0 0 0 0 0 0 127 0" result="hardAlpha"/>
<feOffset dy="4"/>
<feGaussianBlur stdDeviation="2"/>
<feComposite in2="hardAlpha" operator="arithmetic" k2="-1" k3="1"/>
<feColorMatrix type="matrix" values="0 0 0 0 0 0 0 0 0 0 0 0 0 0 0 0 0 0 0.25 0"/>
<feBlend mode="normal" in2="shape" result="effect1_innerShadow_185_686"/>
</filter>
<filter id="filter9_i_185_686" x="107.088" y="25.2577" width="25.0435" height="25.6212" filterUnits="userSpaceOnUse" color-interpolation-filters="sRGB">
<feFlood flood-opacity="0" result="BackgroundImageFix"/>
<feBlend mode="normal" in="SourceGraphic" in2="BackgroundImageFix" result="shape"/>
<feColorMatrix in="SourceAlpha" type="matrix" values="0 0 0 0 0 0 0 0 0 0 0 0 0 0 0 0 0 0 127 0" result="hardAlpha"/>
<feOffset dy="4"/>
<feGaussianBlur stdDeviation="2"/>
<feComposite in2="hardAlpha" operator="arithmetic" k2="-1" k3="1"/>
<feColorMatrix type="matrix" values="0 0 0 0 0 0 0 0 0 0 0 0 0 0 0 0 0 0 0.25 0"/>
<feBlend mode="normal" in2="shape" result="effect1_innerShadow_185_686"/>
</filter>
<filter id="filter10_i_185_686" x="131.332" y="22.4583" width="17.2896" height="24.8303" filterUnits="userSpaceOnUse" color-interpolation-filters="sRGB">
<feFlood flood-opacity="0" result="BackgroundImageFix"/>
<feBlend mode="normal" in="SourceGraphic" in2="BackgroundImageFix" result="shape"/>
<feColorMatrix in="SourceAlpha" type="matrix" values="0 0 0 0 0 0 0 0 0 0 0 0 0 0 0 0 0 0 127 0" result="hardAlpha"/>
<feOffset dy="4"/>
<feGaussianBlur stdDeviation="2"/>
<feComposite in2="hardAlpha" operator="arithmetic" k2="-1" k3="1"/>
<feColorMatrix type="matrix" values="0 0 0 0 0 0 0 0 0 0 0 0 0 0 0 0 0 0 0.25 0"/>
<feBlend mode="normal" in2="shape" result="effect1_innerShadow_185_686"/>
</filter>
<filter id="filter11_i_185_686" x="150.099" y="22.0656" width="14.833" height="19.2394" filterUnits="userSpaceOnUse" color-interpolation-filters="sRGB">
<feFlood flood-opacity="0" result="BackgroundImageFix"/>
<feBlend mode="normal" in="SourceGraphic" in2="BackgroundImageFix" result="shape"/>
<feColorMatrix in="SourceAlpha" type="matrix" values="0 0 0 0 0 0 0 0 0 0 0 0 0 0 0 0 0 0 127 0" result="hardAlpha"/>
<feOffset dy="4"/>
<feGaussianBlur stdDeviation="2"/>
<feComposite in2="hardAlpha" operator="arithmetic" k2="-1" k3="1"/>
<feColorMatrix type="matrix" values="0 0 0 0 0 0 0 0 0 0 0 0 0 0 0 0 0 0 0.25 0"/>
<feBlend mode="normal" in2="shape" result="effect1_innerShadow_185_686"/>
</filter>
</defs>
</svg>
