<svg width="91" height="77" viewBox="0 0 91 77" fill="none" xmlns="http://www.w3.org/2000/svg">
<path d="M21.8186 65.5168C20.7846 67.5787 19.4027 68.8472 17.6729 69.3221C15.9312 69.7911 14.0175 69.5027 11.9317 68.4567C10.5253 67.7514 9.4471 66.8527 8.69708 65.7606C7.93513 64.6626 7.53107 63.4755 7.48488 62.1994C7.42677 60.9173 7.71449 59.6446 8.34805 58.3812C8.59909 57.8806 8.87095 57.4128 9.16365 56.9779C9.44442 56.537 9.79685 56.0127 10.2209 55.405C10.5614 54.9343 10.7854 54.6066 10.8929 54.4219L14.7721 56.6357L13.8128 58.5487L10.7727 57.7848C10.3551 57.9035 9.93715 58.3801 9.51877 59.2144C9.05854 60.1321 9.15281 61.0893 9.80158 62.0858C10.4444 63.0645 11.6478 63.9961 13.4118 64.8807C15.128 65.7414 16.6331 66.1755 17.9271 66.183C19.227 66.1786 20.125 65.6817 20.6211 64.6925C20.8661 64.2038 21.0037 63.8104 21.0339 63.5123C21.07 63.2023 21.0436 62.9131 20.9544 62.6447L19.4449 60.8808L20.4845 59.2095L23.2372 60.9927C23.0877 61.3503 22.9649 61.8182 22.8688 62.3965C22.7608 62.939 22.635 63.4427 22.4913 63.9076C22.3537 64.3606 22.1294 64.897 21.8186 65.5168Z" fill="#8E4C2E"/>
<path d="M15.0453 47.5443L17.1736 44.6408L30.6296 48.9497L31.4412 48.1808L32.5058 48.9611L28.7813 54.0422L27.7167 53.2619L28.3949 51.9984L26.0572 51.1279L23.2312 54.9831L24.781 56.9622L25.8485 55.8105L26.9131 56.5909L23.7679 60.8816L22.6914 60.1173L23.1998 59.0517L15.0453 47.5443ZM18.7269 48.408L17.4204 47.8223L18.3765 48.9199L22.2257 53.75L24.5668 50.5562L18.7269 48.408Z" fill="#8E4C2E"/>
<path d="M28.4178 36.6994C29.9683 38.3345 31.2986 39.9119 32.4089 41.4316C33.5196 42.9324 34.222 44.1866 34.5159 45.1941C34.8261 46.2964 34.6039 47.2053 33.8492 47.9209C33.3558 48.3888 32.9412 48.7268 32.6056 48.9348L31.1386 47.7074C31.5145 47.4062 31.9007 47.0675 32.2974 46.6913C32.5006 46.4987 32.6332 46.2994 32.6953 46.0936C32.7578 45.8689 32.7276 45.5851 32.6047 45.2423C32.3715 44.4345 31.814 43.4105 30.9321 42.1704C30.0599 40.9211 28.7247 39.3483 26.9265 37.452L26.2797 36.7699L24.2875 38.2731L23.3242 37.2572L32.685 28.3811L33.6483 29.397L32.5058 30.8662L40.5287 39.3272L42.0595 38.1512L42.9678 39.1091L37.6125 44.1871L36.7043 43.2292L38.0622 41.6384L30.0538 33.1636L27.427 35.6545L28.4178 36.6994Z" fill="#8E4C2E"/>
<path d="M39.2088 23.7725L42.218 21.7965L53.318 30.5383L54.3473 30.1017L55.0718 31.2051L49.8057 34.6632L49.0812 33.5598L50.1584 32.6132L48.2726 30.9803L44.277 33.604L45.037 36.0001L46.4398 35.2943L47.1643 36.3977L42.7174 39.3178L41.9761 38.2254L42.825 37.4048L39.2088 23.7725ZM42.3561 25.8691L41.3368 24.8635L41.8488 26.2261L43.7661 32.0972L47.0762 29.9236L42.3561 25.8691Z" fill="#8E4C2E"/>
<path d="M55.0254 16.6719L52.7743 17.764L53.7894 22.1875L52.0665 22.9399L49.9426 17.2765L62.0212 12.002L64.6766 17.4332L63.0453 18.1455L60.454 14.4104L58.1962 15.2873L62.9345 26.1378L65.5702 25.2269L66.0985 26.4366L58.0522 29.9503L57.524 28.7406L59.7637 27.5225L55.0254 16.6719Z" fill="#8E4C2E"/>
<path d="M71.1383 15.4992C71.4488 15.4208 71.8573 15.322 72.3636 15.2027C72.8699 15.0835 73.3058 14.9858 73.6713 14.9095C75.3159 14.5664 76.6334 14.6798 77.624 15.2495C78.6145 15.8192 79.2487 16.7698 79.5264 18.1011C79.7279 19.067 79.6672 19.9513 79.3443 20.7542C79.0345 21.5543 78.521 22.2267 77.8038 22.7713C77.0865 23.3159 76.2319 23.6917 75.24 23.8986C74.8875 23.9721 74.2752 24.0726 73.4028 24.2001C72.4261 24.3494 71.6375 24.4866 71.0371 24.6119L68.1198 25.2204L67.8503 23.9282L69.317 23.418L66.9278 11.9645L65.3981 11.9772L65.1245 10.6654L71.977 9.23595L72.2506 10.5477L70.2602 11.2898L71.1383 15.4992ZM85.075 6.50365L85.3609 7.87415L83.7735 8.49132L86.1546 19.9056L87.8441 19.7779L88.1096 21.0505L81.5312 22.4228L81.2616 21.1306L82.8025 20.5844L80.4256 9.18971L78.7629 9.25051L78.4771 7.88001L85.075 6.50365ZM72.6699 22.8411C73.1381 22.866 73.6072 22.8295 74.0771 22.7315C75.0169 22.5354 75.6343 22.1002 75.9295 21.4257C76.2377 20.7485 76.2938 19.94 76.0977 19.0002C75.8854 17.9821 75.52 17.2752 75.0016 16.8794C74.4935 16.4678 73.8152 16.3505 72.9668 16.5275C72.275 16.6718 71.7622 16.7924 71.4283 16.8893L72.6699 22.8411Z" fill="#8E4C2E"/>
</svg>
