<svg width="113" height="121" viewBox="0 0 113 121" fill="none" xmlns="http://www.w3.org/2000/svg">
<path d="M6.36651 83.3756C6.53492 83.0714 6.75237 82.6079 7.01885 81.9852C7.59934 80.6432 8.07294 79.6939 8.43963 79.1371C9.44438 77.6116 10.4539 76.6001 11.468 76.1026C12.4711 75.5978 13.4459 75.657 14.3923 76.2804C15.2832 76.8671 15.8088 77.6205 15.9692 78.5404C16.1186 79.453 15.9998 80.3726 15.613 81.2993C16.3358 80.2746 17.1403 79.6469 18.0266 79.4164C18.9128 79.1859 19.7679 79.342 20.5919 79.8847C21.8279 80.6988 22.5104 81.723 22.6393 82.9574C22.7683 84.1919 22.2057 85.7611 20.9516 87.6652C20.5555 88.2665 20.1792 88.7531 19.8226 89.1249C19.4548 89.4893 19.0133 89.8931 18.498 90.336C18.1189 90.6451 17.8631 90.8758 17.7309 91.0281L14.777 88.5318L15.701 87.1288L18.4081 88.1454C18.9693 87.9722 19.4992 87.5069 19.9979 86.7498C20.3939 86.1485 20.4683 85.5508 20.2209 84.9568C19.9697 84.3443 19.4265 83.7631 18.5914 83.213C17.9567 82.795 17.3122 82.61 16.6579 82.658C16.0109 82.6949 15.4308 83.1031 14.9174 83.8825L14.2133 84.9515L12.9606 84.1265L13.5547 83.2245C13.9801 82.5787 14.1317 81.9122 14.0095 81.225C13.8873 80.5379 13.4031 79.9156 12.5568 79.3582C11.9148 78.9513 11.3261 78.827 10.7908 78.9853C10.2516 79.1252 9.7877 79.4902 9.399 80.0803C9.12765 80.4923 8.96331 80.8631 8.90598 81.1925C8.83751 81.5146 8.84999 81.7623 8.94341 81.9356L10.3827 83.3865L9.33758 84.9732L6.36651 83.3756Z" fill="#8E4C2E"/>
<path d="M17.0598 68.1021L19.514 65.4683L32.3716 71.326L33.2679 70.6576L34.2336 71.5575L29.9386 76.1665L28.9729 75.2667L29.7947 74.0914L27.5753 72.9528L24.3166 76.4498L25.6235 78.5971L26.8186 77.5785L27.7844 78.4784L24.1575 82.3705L23.1782 81.4852L23.808 80.4866L17.0598 68.1021ZM20.6147 69.3917L19.3859 68.6568L20.2067 69.859L23.4626 75.1073L26.1623 72.2102L20.6147 69.3917Z" fill="#8E4C2E"/>
<path d="M36.7481 59.709C37.4608 59.3933 38.2728 59.3778 39.1842 59.6625C40.0956 59.9473 41.1758 60.4137 42.4251 61.0618C43.0536 61.3913 43.5384 61.6284 43.8794 61.7731C44.2311 61.9099 44.4964 61.9532 44.6752 61.9029L45.3837 61.6485L46.1734 62.7063L43.2725 64.8718C43.0053 65.0712 42.6027 65.0556 42.0646 64.825C41.5371 64.5865 40.7967 64.1742 39.8433 63.588C38.6956 62.8974 37.7753 62.4114 37.0826 62.1298C36.382 61.8376 35.8286 61.843 35.4226 62.1461L34.8136 62.6007L38.0079 66.8799L39.5939 65.9955L40.3716 67.0372L35.0185 71.0332L34.2289 69.9754L35.2833 68.9138L28.3203 59.586L26.9669 60.247L26.1294 59.1251L31.226 55.3206L32.0634 56.4425L31.0449 57.5522L34.0838 61.623L35.1255 60.8454L34.7352 54.7725L33.4578 55.4016L32.6203 54.2797L37.0278 50.9896L37.8652 52.1115L36.6704 53.3528L36.7481 59.709Z" fill="#8E4C2E"/>
<path d="M52.0226 56.3522C52.0641 57.1391 52.0629 57.798 52.0191 58.329C51.9811 58.8421 51.8119 59.3621 51.5116 59.889C51.2172 60.398 50.7373 60.8219 50.0719 61.1607C49.7154 61.3422 49.3082 61.5121 48.8502 61.6705C48.3922 61.8288 48.0351 61.9209 47.7788 61.9466L46.9622 60.3425C47.194 60.2395 47.6366 60.0216 48.2901 59.6888C48.8605 59.3985 49.2222 59.1245 49.3754 58.867C49.5225 58.5976 49.5377 58.2308 49.4211 57.7665L40.7393 50.8529L39.6589 51.1112L39.0237 49.8636L44.8697 46.8873L45.5049 48.1349L44.0813 49.1739L49.023 53.4581L50.2302 54.639L49.9764 52.9503L49.0627 46.6153L47.6437 47.046L47.0085 45.7984L51.0543 43.7386L51.6895 44.9862L50.8897 45.7076L52.0226 56.3522Z" fill="#8E4C2E"/>
<path d="M64.6311 55.055C62.4387 55.7719 60.565 55.6832 59.01 54.7888C57.4509 53.8818 56.3088 52.3194 55.5836 50.1016C55.0947 48.6062 54.9741 47.2077 55.2219 45.9063C55.4655 44.5921 56.0243 43.4695 56.8982 42.5385C57.768 41.5948 58.8745 40.9033 60.2179 40.4641C60.7502 40.29 61.2738 40.1539 61.7887 40.0556C62.2996 39.9447 62.9201 39.826 63.6502 39.6995C64.2242 39.61 64.6146 39.5384 64.8215 39.4848L65.9795 43.7985L63.9455 44.4636L62.3482 41.7665C61.9699 41.5535 61.3372 41.592 60.4501 41.8821C59.4743 42.2012 58.8608 42.9419 58.6095 44.1042C58.3669 45.2497 58.5522 46.7602 59.1655 48.6358C59.7622 50.4607 60.5133 51.8354 61.4187 52.7598C62.3368 53.68 63.3218 53.9681 64.3737 53.6242C64.8933 53.4543 65.2696 53.2751 65.5026 53.0867C65.7482 52.8942 65.935 52.6718 66.063 52.4195L66.2533 50.1058L68.1722 49.6677L68.8432 52.8782C68.4839 53.0237 68.0651 53.2659 67.5867 53.6046C67.1254 53.9098 66.679 54.175 66.2477 54.4002C65.829 54.6213 65.2901 54.8396 64.6311 55.055Z" fill="#8E4C2E"/>
<path d="M77.9112 43.6652C78.6889 43.718 79.4146 44.0826 80.0883 44.7592C80.762 45.4358 81.5005 46.3519 82.3038 47.5075C82.7065 48.0919 83.025 48.5275 83.2592 48.8145C83.5067 49.0994 83.7212 49.2613 83.9028 49.3001L84.6483 49.4052L84.8541 50.7091L81.2783 51.2734C80.9491 51.3253 80.6001 51.1239 80.2313 50.6692C79.8758 50.2124 79.4128 49.5025 78.8424 48.5397C78.1486 47.3938 77.5609 46.5349 77.0792 45.963C76.5954 45.3779 76.1033 45.1249 75.6028 45.2039L74.8521 45.3223L75.6845 50.5971L77.4999 50.5535L77.7026 51.8377L71.1042 52.8789L70.8985 51.5751L72.3261 51.1271L70.5116 39.6293L69.0061 39.5835L68.7878 38.2006L75.0701 37.2092L75.2883 38.5921L73.8701 39.0994L74.6619 44.1173L75.946 43.9146L78.4305 38.3594L77.0071 38.3208L76.7888 36.938L82.2216 36.0806L82.4398 37.4635L80.8043 38.0051L77.9112 43.6652Z" fill="#8E4C2E"/>
<path d="M92.0062 36.0448L91.9737 37.4244L90.2071 37.6828L89.9989 46.5204L91.2075 44.4683L96.0356 38.2403L96.0455 37.8204L94.4126 37.5019L94.4456 36.1022L100.984 36.2563L100.951 37.6559L99.4246 37.9001L99.1503 49.5368L100.705 49.7935L100.674 51.1132L94.1154 50.9586L94.1465 49.639L95.7713 49.4572L95.9828 40.4797L94.8946 42.5146L89.9461 48.7597L89.9329 49.3196L91.6672 49.5805L91.6361 50.9002L84.998 50.7437L85.0291 49.4241L86.5533 49.2599L86.8285 37.5832L85.3351 37.2879L85.3681 35.8883L92.0062 36.0448Z" fill="#8E4C2E"/>
</svg>
