<svg width="79" height="86" viewBox="0 0 79 86" fill="none" xmlns="http://www.w3.org/2000/svg">
<path d="M22.9018 64.1444C21.5237 65.9942 19.9416 67.0019 18.1555 67.1676C16.3586 67.3254 14.5247 66.7072 12.6535 65.3132C11.3918 64.3733 10.4871 63.3002 9.93919 62.0939C9.38063 60.8797 9.19 59.6403 9.36728 58.3757C9.53387 57.1032 10.0394 55.9002 10.8837 54.7668C11.2183 54.3178 11.5676 53.9046 11.9318 53.5275C12.2852 53.1423 12.7238 52.6876 13.2474 52.1633C13.6648 51.7593 13.9425 51.4757 14.0807 51.3126L17.5139 54.1696L16.2353 55.8857L13.3752 54.6029C12.9434 54.6469 12.4486 55.0432 11.891 55.7916C11.2777 56.6149 11.2034 57.5738 11.6682 58.6684C12.1303 59.7442 13.1526 60.8716 14.7351 62.0505C16.2748 63.1976 17.681 63.8878 18.9537 64.121C20.2345 64.3436 21.2054 64.0112 21.8666 63.1237C22.1932 62.6853 22.3973 62.322 22.4791 62.0337C22.5688 61.7348 22.5932 61.4454 22.5523 61.1655L21.3739 59.1653L22.6892 57.7011L25.0884 59.9374C24.8787 60.2634 24.6761 60.7027 24.4806 61.2553C24.2796 61.7706 24.0677 62.2447 23.8451 62.6774C23.6305 63.0994 23.316 63.5884 22.9018 64.1444Z" fill="#8E4C2E"/>
<path d="M29.9791 51.3551C30.2482 52.0956 30.4391 52.7262 30.552 53.247C30.6652 53.7489 30.655 54.2956 30.5214 54.8872C30.3881 55.4599 30.0526 56.0053 29.5149 56.5233C29.2268 56.8008 28.8868 57.0821 28.4949 57.3671C28.103 57.6521 27.7882 57.8443 27.5506 57.9436L26.3018 56.6472C26.4935 56.4811 26.8534 56.1436 27.3815 55.6348C27.8424 55.1908 28.1086 54.8233 28.18 54.5323C28.2422 54.2317 28.1498 53.8764 27.9029 53.4663L17.5828 49.384L16.6246 49.946L15.6533 48.9378L20.3776 44.3865L21.349 45.3947L20.2901 46.8036L26.2661 49.4611L27.7651 50.2388L27.03 48.6974L24.3092 42.9039L23.0774 43.7296L22.1061 42.7214L25.3757 39.5716L26.347 40.5798L25.7923 41.503L29.9791 51.3551Z" fill="#8E4C2E"/>
<path d="M39.8744 29.5801L40.639 30.729L39.5121 31.8153L45.9722 41.5221L47.4593 40.7966L48.1907 41.8955L42.7795 45.4968L42.0482 44.3979L43.1251 43.4169L36.5652 33.5602L32.3861 36.3415L38.957 46.2149L40.3832 45.506L41.1145 46.6049L35.7033 50.2061L34.972 49.1072L36.1266 48.0986L29.6665 38.3917L28.2127 39.0229L27.437 37.8575L39.8744 29.5801Z" fill="#8E4C2E"/>
<path d="M49.6067 31.4779C49.9009 31.3513 50.2885 31.189 50.7695 30.991C51.2506 30.7931 51.6655 30.6276 52.0142 30.4944C53.5837 29.8952 54.9026 29.7983 55.9709 30.204C57.0392 30.6096 57.8159 31.4477 58.301 32.7182C58.6529 33.64 58.7331 34.5228 58.5415 35.3667C58.3623 36.2058 57.9618 36.951 57.3399 37.6023C56.718 38.2537 55.9337 38.7601 54.987 39.1215C54.6507 39.2499 54.062 39.4462 53.2208 39.7102C52.28 40.0123 51.5232 40.2728 50.9502 40.4915L48.1662 41.5545L47.6953 40.3213L49.0627 39.5852L44.8894 28.6548L43.3811 28.9095L42.9031 27.6577L49.4426 25.1608L49.9206 26.4127L48.0729 27.4607L49.6067 31.4779ZM61.9425 20.3883L62.4419 21.6962L60.9723 22.557L65.1313 33.45L66.7793 33.0563L67.243 34.2708L60.965 36.6678L60.4942 35.4346L61.9292 34.6512L57.7772 23.7769L56.1452 24.1003L55.6459 22.7924L61.9425 20.3883ZM52.2819 38.4845C52.7482 38.4349 53.2056 38.3245 53.654 38.1533C54.5508 37.8109 55.0916 37.2833 55.2761 36.5706C55.4732 35.8531 55.4005 35.0459 55.0581 34.1491C54.6871 33.1775 54.2143 32.5374 53.6398 32.2287C53.0729 31.9028 52.3846 31.8944 51.575 32.2035C50.9148 32.4556 50.4275 32.6559 50.1132 32.8044L52.2819 38.4845Z" fill="#8E4C2E"/>
</svg>
